<svg width="251" height="69" viewBox="0 0 251 69" fill="none" xmlns="http://www.w3.org/2000/svg">
<rect x="0.5" y="0.5" width="250" height="68" rx="9.5" stroke="white"/>
<path d="M55.9313 34.4965L16.344 55.8353L16.2249 13.4061L55.9313 34.4965Z" fill="#D9D9D9"/>
<path d="M11.5178 60L17.0524 58.9338L13.454 54.4189L11.5178 60ZM47.1705 27.609L14.5681 56.6177L15.1913 57.3997L47.7938 28.391L47.1705 27.609Z" fill="black"/>
<path d="M12.4641 10L14.2504 15.632L17.9671 11.214L12.4641 10ZM46.8575 41.6174L16.0662 12.6981L15.4224 13.4633L46.2138 42.3826L46.8575 41.6174Z" fill="black"/>
<path d="M76.2949 18.752V21.875C76.1895 22.0312 76.0215 22.207 75.791 22.4023C75.5605 22.5938 75.2422 22.7617 74.8359 22.9062C74.4336 23.0469 73.9141 23.1172 73.2773 23.1172C72.7578 23.1172 72.2793 23.0273 71.8418 22.8477C71.4082 22.6641 71.0312 22.3984 70.7109 22.0508C70.3945 21.6992 70.1484 21.2734 69.9727 20.7734C69.8008 20.2695 69.7148 19.6992 69.7148 19.0625V18.4004C69.7148 17.7637 69.7891 17.1953 69.9375 16.6953C70.0898 16.1953 70.3125 15.7715 70.6055 15.4238C70.8984 15.0723 71.2578 14.8066 71.6836 14.627C72.1094 14.4434 72.5977 14.3516 73.1484 14.3516C73.8008 14.3516 74.3457 14.4648 74.7832 14.6914C75.2246 14.9141 75.5684 15.2227 75.8145 15.6172C76.0645 16.0117 76.2246 16.4609 76.2949 16.9648H75.1641C75.1133 16.6562 75.0117 16.375 74.8594 16.1211C74.7109 15.8672 74.498 15.6641 74.2207 15.5117C73.9434 15.3555 73.5859 15.2773 73.1484 15.2773C72.7539 15.2773 72.4121 15.3496 72.123 15.4941C71.834 15.6387 71.5957 15.8457 71.4082 16.1152C71.2207 16.3848 71.0801 16.7109 70.9863 17.0938C70.8965 17.4766 70.8516 17.9082 70.8516 18.3887V19.0625C70.8516 19.5547 70.9082 19.9941 71.0215 20.3809C71.1387 20.7676 71.3047 21.0977 71.5195 21.3711C71.7344 21.6406 71.9902 21.8457 72.2871 21.9863C72.5879 22.127 72.9199 22.1973 73.2832 22.1973C73.6855 22.1973 74.0117 22.1641 74.2617 22.0977C74.5117 22.0273 74.707 21.9453 74.8477 21.8516C74.9883 21.7539 75.0957 21.6621 75.1699 21.5762V19.666H73.1953V18.752H76.2949ZM83.5898 22.0801V23H79.0723V22.0801H83.5898ZM79.3008 14.4688V23H78.1699V14.4688H79.3008ZM82.9922 18.1367V19.0566H79.0723V18.1367H82.9922ZM83.5312 14.4688V15.3945H79.0723V14.4688H83.5312ZM88.2598 14.4688V23H87.1465V14.4688H88.2598ZM91.002 14.4688V15.3945H84.4102V14.4688H91.002ZM96.2227 14.4688V23H95.0918V14.4688H96.2227ZM101.256 14.4688V23H100.143V14.4688H101.256ZM103.998 14.4688V15.3945H97.4062V14.4688H103.998ZM114.574 18.4648V19.0039C114.574 19.6445 114.494 20.2188 114.334 20.7266C114.174 21.2344 113.943 21.666 113.643 22.0215C113.342 22.377 112.98 22.6484 112.559 22.8359C112.141 23.0234 111.672 23.1172 111.152 23.1172C110.648 23.1172 110.186 23.0234 109.764 22.8359C109.346 22.6484 108.982 22.377 108.674 22.0215C108.369 21.666 108.133 21.2344 107.965 20.7266C107.797 20.2188 107.713 19.6445 107.713 19.0039V18.4648C107.713 17.8242 107.795 17.252 107.959 16.748C108.127 16.2402 108.363 15.8086 108.668 15.4531C108.973 15.0938 109.334 14.8203 109.752 14.6328C110.174 14.4453 110.637 14.3516 111.141 14.3516C111.66 14.3516 112.129 14.4453 112.547 14.6328C112.969 14.8203 113.33 15.0938 113.631 15.4531C113.936 15.8086 114.168 16.2402 114.328 16.748C114.492 17.252 114.574 17.8242 114.574 18.4648ZM113.455 19.0039V18.4531C113.455 17.9453 113.402 17.4961 113.297 17.1055C113.195 16.7148 113.045 16.3867 112.846 16.1211C112.646 15.8555 112.402 15.6543 112.113 15.5176C111.828 15.3809 111.504 15.3125 111.141 15.3125C110.789 15.3125 110.471 15.3809 110.186 15.5176C109.904 15.6543 109.662 15.8555 109.459 16.1211C109.26 16.3867 109.105 16.7148 108.996 17.1055C108.887 17.4961 108.832 17.9453 108.832 18.4531V19.0039C108.832 19.5156 108.887 19.9688 108.996 20.3633C109.105 20.7539 109.262 21.084 109.465 21.3535C109.672 21.6191 109.916 21.8203 110.197 21.957C110.482 22.0938 110.801 22.1621 111.152 22.1621C111.52 22.1621 111.846 22.0938 112.131 21.957C112.416 21.8203 112.656 21.6191 112.852 21.3535C113.051 21.084 113.201 20.7539 113.303 20.3633C113.404 19.9688 113.455 19.5156 113.455 19.0039ZM122.83 14.4688V23H121.693L117.398 16.4199V23H116.268V14.4688H117.398L121.711 21.0664V14.4688H122.83Z" fill="white"/>
<path d="M86.0215 40.0879V47.375C85.7754 47.7396 85.3835 48.1497 84.8457 48.6055C84.3079 49.0521 83.5651 49.444 82.6172 49.7812C81.6784 50.1094 80.4661 50.2734 78.9805 50.2734C77.7682 50.2734 76.6517 50.0638 75.6309 49.6445C74.6191 49.2161 73.7396 48.5964 72.9922 47.7852C72.2539 46.9648 71.6797 45.9714 71.2695 44.8047C70.8685 43.6289 70.668 42.2982 70.668 40.8125V39.2676C70.668 37.7819 70.8411 36.4557 71.1875 35.2891C71.543 34.1224 72.0625 33.1335 72.7461 32.3223C73.4297 31.502 74.2682 30.8822 75.2617 30.4629C76.2552 30.0345 77.3945 29.8203 78.6797 29.8203C80.2018 29.8203 81.4733 30.0846 82.4941 30.6133C83.5241 31.1328 84.3262 31.8529 84.9004 32.7734C85.4837 33.694 85.8574 34.7422 86.0215 35.918H83.3828C83.2643 35.1979 83.0273 34.5417 82.6719 33.9492C82.3255 33.3568 81.8288 32.8828 81.1816 32.5273C80.5345 32.1628 79.7005 31.9805 78.6797 31.9805C77.7591 31.9805 76.9616 32.1491 76.2871 32.4863C75.6126 32.8236 75.0566 33.3066 74.6191 33.9355C74.1816 34.5645 73.8535 35.3255 73.6348 36.2188C73.4251 37.112 73.3203 38.1191 73.3203 39.2402V40.8125C73.3203 41.9609 73.4525 42.9863 73.7168 43.8887C73.9902 44.791 74.3776 45.5612 74.8789 46.1992C75.3802 46.8281 75.9772 47.3066 76.6699 47.6348C77.3717 47.9629 78.1465 48.127 78.9941 48.127C79.9329 48.127 80.694 48.0495 81.2773 47.8945C81.8607 47.7305 82.3164 47.5391 82.6445 47.3203C82.9727 47.0924 83.2233 46.8783 83.3965 46.6777V42.2207H78.7891V40.0879H86.0215ZM89.3438 42.7676V42.4531C89.3438 41.3867 89.4987 40.3978 89.8086 39.4863C90.1185 38.5658 90.5651 37.7682 91.1484 37.0938C91.7318 36.4102 92.4382 35.8815 93.2676 35.5078C94.097 35.125 95.0267 34.9336 96.0566 34.9336C97.0957 34.9336 98.0299 35.125 98.8594 35.5078C99.6979 35.8815 100.409 36.4102 100.992 37.0938C101.585 37.7682 102.036 38.5658 102.346 39.4863C102.656 40.3978 102.811 41.3867 102.811 42.4531V42.7676C102.811 43.834 102.656 44.8229 102.346 45.7344C102.036 46.6458 101.585 47.4434 100.992 48.127C100.409 48.8014 99.7025 49.3301 98.873 49.7129C98.0527 50.0866 97.123 50.2734 96.084 50.2734C95.0449 50.2734 94.1107 50.0866 93.2812 49.7129C92.4518 49.3301 91.7409 48.8014 91.1484 48.127C90.5651 47.4434 90.1185 46.6458 89.8086 45.7344C89.4987 44.8229 89.3438 43.834 89.3438 42.7676ZM91.873 42.4531V42.7676C91.873 43.5059 91.9596 44.2031 92.1328 44.8594C92.306 45.5065 92.5658 46.0807 92.9121 46.582C93.2676 47.0833 93.7096 47.4798 94.2383 47.7715C94.7669 48.054 95.3822 48.1953 96.084 48.1953C96.7767 48.1953 97.3828 48.054 97.9023 47.7715C98.431 47.4798 98.8685 47.0833 99.2148 46.582C99.5612 46.0807 99.821 45.5065 99.9941 44.8594C100.176 44.2031 100.268 43.5059 100.268 42.7676V42.4531C100.268 41.724 100.176 41.0358 99.9941 40.3887C99.821 39.7324 99.5566 39.1536 99.2012 38.6523C98.8548 38.1419 98.4173 37.7409 97.8887 37.4492C97.3691 37.1576 96.7585 37.0117 96.0566 37.0117C95.3639 37.0117 94.7533 37.1576 94.2246 37.4492C93.7051 37.7409 93.2676 38.1419 92.9121 38.6523C92.5658 39.1536 92.306 39.7324 92.1328 40.3887C91.9596 41.0358 91.873 41.724 91.873 42.4531ZM105.312 42.7676V42.4531C105.312 41.3867 105.467 40.3978 105.777 39.4863C106.087 38.5658 106.534 37.7682 107.117 37.0938C107.701 36.4102 108.407 35.8815 109.236 35.5078C110.066 35.125 110.995 34.9336 112.025 34.9336C113.064 34.9336 113.999 35.125 114.828 35.5078C115.667 35.8815 116.378 36.4102 116.961 37.0938C117.553 37.7682 118.005 38.5658 118.314 39.4863C118.624 40.3978 118.779 41.3867 118.779 42.4531V42.7676C118.779 43.834 118.624 44.8229 118.314 45.7344C118.005 46.6458 117.553 47.4434 116.961 48.127C116.378 48.8014 115.671 49.3301 114.842 49.7129C114.021 50.0866 113.092 50.2734 112.053 50.2734C111.014 50.2734 110.079 50.0866 109.25 49.7129C108.421 49.3301 107.71 48.8014 107.117 48.127C106.534 47.4434 106.087 46.6458 105.777 45.7344C105.467 44.8229 105.312 43.834 105.312 42.7676ZM107.842 42.4531V42.7676C107.842 43.5059 107.928 44.2031 108.102 44.8594C108.275 45.5065 108.535 46.0807 108.881 46.582C109.236 47.0833 109.678 47.4798 110.207 47.7715C110.736 48.054 111.351 48.1953 112.053 48.1953C112.745 48.1953 113.352 48.054 113.871 47.7715C114.4 47.4798 114.837 47.0833 115.184 46.582C115.53 46.0807 115.79 45.5065 115.963 44.8594C116.145 44.2031 116.236 43.5059 116.236 42.7676V42.4531C116.236 41.724 116.145 41.0358 115.963 40.3887C115.79 39.7324 115.525 39.1536 115.17 38.6523C114.824 38.1419 114.386 37.7409 113.857 37.4492C113.338 37.1576 112.727 37.0117 112.025 37.0117C111.333 37.0117 110.722 37.1576 110.193 37.4492C109.674 37.7409 109.236 38.1419 108.881 38.6523C108.535 39.1536 108.275 39.7324 108.102 40.3887C107.928 41.0358 107.842 41.724 107.842 42.4531ZM131.535 35.207H133.832V49.6855C133.832 50.9889 133.568 52.1009 133.039 53.0215C132.51 53.9421 131.772 54.6393 130.824 55.1133C129.885 55.5964 128.801 55.8379 127.57 55.8379C127.06 55.8379 126.458 55.7559 125.766 55.5918C125.082 55.4368 124.408 55.168 123.742 54.7852C123.086 54.4115 122.535 53.9056 122.088 53.2676L123.414 51.7637C124.034 52.5111 124.681 53.0306 125.355 53.3223C126.039 53.6139 126.714 53.7598 127.379 53.7598C128.181 53.7598 128.874 53.6094 129.457 53.3086C130.04 53.0078 130.492 52.5612 130.811 51.9688C131.139 51.3854 131.303 50.6654 131.303 49.8086V38.4609L131.535 35.207ZM121.35 42.7676V42.4805C121.35 41.3503 121.482 40.3249 121.746 39.4043C122.02 38.4746 122.407 37.6771 122.908 37.0117C123.419 36.3464 124.034 35.8359 124.754 35.4805C125.474 35.1159 126.285 34.9336 127.188 34.9336C128.117 34.9336 128.928 35.0977 129.621 35.4258C130.323 35.7448 130.915 36.2142 131.398 36.834C131.891 37.4447 132.278 38.1829 132.561 39.0488C132.843 39.9147 133.039 40.8945 133.148 41.9883V43.2461C133.048 44.3307 132.852 45.306 132.561 46.1719C132.278 47.0378 131.891 47.776 131.398 48.3867C130.915 48.9974 130.323 49.4668 129.621 49.7949C128.919 50.1139 128.099 50.2734 127.16 50.2734C126.276 50.2734 125.474 50.0866 124.754 49.7129C124.043 49.3392 123.432 48.8151 122.922 48.1406C122.411 47.4661 122.02 46.6732 121.746 45.7617C121.482 44.8411 121.35 43.8431 121.35 42.7676ZM123.879 42.4805V42.7676C123.879 43.5059 123.952 44.1986 124.098 44.8457C124.253 45.4928 124.485 46.0625 124.795 46.5547C125.114 47.0469 125.52 47.4342 126.012 47.7168C126.504 47.9902 127.092 48.127 127.775 48.127C128.614 48.127 129.307 47.9492 129.854 47.5938C130.4 47.2383 130.833 46.7689 131.152 46.1855C131.48 45.6022 131.736 44.9688 131.918 44.2852V40.9902C131.818 40.4889 131.663 40.0059 131.453 39.541C131.253 39.0671 130.988 38.6478 130.66 38.2832C130.341 37.9095 129.945 37.6133 129.471 37.3945C128.997 37.1758 128.441 37.0664 127.803 37.0664C127.11 37.0664 126.513 37.2122 126.012 37.5039C125.52 37.7865 125.114 38.1784 124.795 38.6797C124.485 39.1719 124.253 39.7461 124.098 40.4023C123.952 41.0495 123.879 41.7422 123.879 42.4805ZM140.422 29V50H137.879V29H140.422ZM150.621 50.2734C149.591 50.2734 148.657 50.1003 147.818 49.7539C146.989 49.3984 146.273 48.9017 145.672 48.2637C145.079 47.6257 144.624 46.8691 144.305 45.9941C143.986 45.1191 143.826 44.1621 143.826 43.123V42.5488C143.826 41.3457 144.004 40.2747 144.359 39.3359C144.715 38.388 145.198 37.5859 145.809 36.9297C146.419 36.2734 147.112 35.7767 147.887 35.4395C148.661 35.1022 149.464 34.9336 150.293 34.9336C151.35 34.9336 152.262 35.1159 153.027 35.4805C153.802 35.8451 154.436 36.3555 154.928 37.0117C155.42 37.6589 155.785 38.4245 156.021 39.3086C156.258 40.1836 156.377 41.1406 156.377 42.1797V43.3145H145.33V41.25H153.848V41.0586C153.811 40.4023 153.674 39.7643 153.438 39.1445C153.21 38.5247 152.845 38.0143 152.344 37.6133C151.842 37.2122 151.159 37.0117 150.293 37.0117C149.719 37.0117 149.19 37.1348 148.707 37.3809C148.224 37.6178 147.809 37.9733 147.463 38.4473C147.117 38.9212 146.848 39.5 146.656 40.1836C146.465 40.8672 146.369 41.6556 146.369 42.5488V43.123C146.369 43.8249 146.465 44.4857 146.656 45.1055C146.857 45.7161 147.144 46.2539 147.518 46.7188C147.9 47.1836 148.361 47.5482 148.898 47.8125C149.445 48.0768 150.065 48.209 150.758 48.209C151.651 48.209 152.408 48.0267 153.027 47.6621C153.647 47.2975 154.189 46.8099 154.654 46.1992L156.186 47.416C155.867 47.8991 155.461 48.3594 154.969 48.7969C154.477 49.2344 153.87 49.5898 153.15 49.8633C152.439 50.1367 151.596 50.2734 150.621 50.2734ZM174 42.1934H168.682V40.0469H174C175.03 40.0469 175.864 39.8828 176.502 39.5547C177.14 39.2266 177.605 38.7708 177.896 38.1875C178.197 37.6042 178.348 36.9388 178.348 36.1914C178.348 35.5078 178.197 34.8652 177.896 34.2637C177.605 33.6621 177.14 33.179 176.502 32.8145C175.864 32.4408 175.03 32.2539 174 32.2539H169.297V50H166.658V30.0938H174C175.504 30.0938 176.775 30.3535 177.814 30.873C178.854 31.3926 179.642 32.1126 180.18 33.0332C180.717 33.9447 180.986 34.9883 180.986 36.1641C180.986 37.4401 180.717 38.5293 180.18 39.4316C179.642 40.334 178.854 41.0221 177.814 41.4961C176.775 41.9609 175.504 42.1934 174 42.1934ZM186.688 29V50H184.145V29H186.688ZM199.471 47.4707V39.8555C199.471 39.2721 199.352 38.7663 199.115 38.3379C198.887 37.9004 198.541 37.5632 198.076 37.3262C197.611 37.0892 197.037 36.9707 196.354 36.9707C195.715 36.9707 195.155 37.0801 194.672 37.2988C194.198 37.5176 193.824 37.8047 193.551 38.1602C193.286 38.5156 193.154 38.8984 193.154 39.3086H190.625C190.625 38.7799 190.762 38.2559 191.035 37.7363C191.309 37.2168 191.701 36.7474 192.211 36.3281C192.73 35.8997 193.35 35.5625 194.07 35.3164C194.799 35.0612 195.611 34.9336 196.504 34.9336C197.579 34.9336 198.527 35.1159 199.348 35.4805C200.177 35.8451 200.824 36.3965 201.289 37.1348C201.763 37.8639 202 38.7799 202 39.8828V46.7734C202 47.2656 202.041 47.7897 202.123 48.3457C202.214 48.9017 202.346 49.3802 202.52 49.7812V50H199.881C199.753 49.7083 199.653 49.321 199.58 48.8379C199.507 48.3457 199.471 47.89 199.471 47.4707ZM199.908 41.0312L199.936 42.8086H197.379C196.659 42.8086 196.016 42.8678 195.451 42.9863C194.886 43.0957 194.412 43.2643 194.029 43.4922C193.646 43.7201 193.355 44.0072 193.154 44.3535C192.954 44.6908 192.854 45.0872 192.854 45.543C192.854 46.0078 192.958 46.4316 193.168 46.8145C193.378 47.1973 193.692 47.5026 194.111 47.7305C194.54 47.9492 195.064 48.0586 195.684 48.0586C196.458 48.0586 197.142 47.8945 197.734 47.5664C198.327 47.2383 198.796 46.8372 199.143 46.3633C199.498 45.8893 199.689 45.429 199.717 44.9824L200.797 46.1992C200.733 46.582 200.56 47.0059 200.277 47.4707C199.995 47.9355 199.617 48.3822 199.143 48.8105C198.678 49.2298 198.122 49.5807 197.475 49.8633C196.837 50.1367 196.117 50.2734 195.314 50.2734C194.312 50.2734 193.432 50.0775 192.676 49.6855C191.928 49.2936 191.345 48.7695 190.926 48.1133C190.516 47.4479 190.311 46.7051 190.311 45.8848C190.311 45.0918 190.465 44.3945 190.775 43.793C191.085 43.1823 191.532 42.6764 192.115 42.2754C192.699 41.8652 193.4 41.5553 194.221 41.3457C195.041 41.1361 195.957 41.0312 196.969 41.0312H199.908ZM209.916 48.4688L214.031 35.207H216.738L210.805 52.2832C210.668 52.6478 210.486 53.0397 210.258 53.459C210.039 53.8874 209.757 54.293 209.41 54.6758C209.064 55.0586 208.645 55.3685 208.152 55.6055C207.669 55.8516 207.09 55.9746 206.416 55.9746C206.215 55.9746 205.96 55.9473 205.65 55.8926C205.34 55.8379 205.122 55.7923 204.994 55.7559L204.98 53.7051C205.053 53.7142 205.167 53.7233 205.322 53.7324C205.486 53.7507 205.6 53.7598 205.664 53.7598C206.238 53.7598 206.726 53.6823 207.127 53.5273C207.528 53.3815 207.865 53.1309 208.139 52.7754C208.421 52.429 208.663 51.9505 208.863 51.3398L209.916 48.4688ZM206.895 35.207L210.736 46.6914L211.393 49.3574L209.574 50.2871L204.133 35.207H206.895Z" fill="white"/>
</svg>
