<svg id="wave" style="transform:rotate(180deg); transition: 0.3s" viewBox="0 0 1440 280" version="1.1" xmlns="http://www.w3.org/2000/svg"><defs><linearGradient id="sw-gradient-0" x1="0" x2="0" y1="1" y2="0"><stop stop-color="rgba(248, 249, 250, 1)" offset="0%"></stop><stop stop-color="rgba(248, 249, 250, 1)" offset="100%"></stop></linearGradient></defs><path style="transform:translate(0, 0px); opacity:1" fill="url(#sw-gradient-0)" d="M0,56L30,51.3C60,47,120,37,180,46.7C240,56,300,84,360,79.3C420,75,480,37,540,37.3C600,37,660,75,720,112C780,149,840,187,900,200.7C960,215,1020,205,1080,191.3C1140,177,1200,159,1260,149.3C1320,140,1380,140,1440,116.7C1500,93,1560,47,1620,37.3C1680,28,1740,56,1800,88.7C1860,121,1920,159,1980,182C2040,205,2100,215,2160,214.7C2220,215,2280,205,2340,168C2400,131,2460,65,2520,32.7C2580,0,2640,0,2700,28C2760,56,2820,112,2880,144.7C2940,177,3000,187,3060,158.7C3120,131,3180,65,3240,65.3C3300,65,3360,131,3420,135.3C3480,140,3540,84,3600,56C3660,28,3720,28,3780,46.7C3840,65,3900,103,3960,107.3C4020,112,4080,84,4140,93.3C4200,103,4260,149,4290,172.7L4320,196L4320,280L4290,280C4260,280,4200,280,4140,280C4080,280,4020,280,3960,280C3900,280,3840,280,3780,280C3720,280,3660,280,3600,280C3540,280,3480,280,3420,280C3360,280,3300,280,3240,280C3180,280,3120,280,3060,280C3000,280,2940,280,2880,280C2820,280,2760,280,2700,280C2640,280,2580,280,2520,280C2460,280,2400,280,2340,280C2280,280,2220,280,2160,280C2100,280,2040,280,1980,280C1920,280,1860,280,1800,280C1740,280,1680,280,1620,280C1560,280,1500,280,1440,280C1380,280,1320,280,1260,280C1200,280,1140,280,1080,280C1020,280,960,280,900,280C840,280,780,280,720,280C660,280,600,280,540,280C480,280,420,280,360,280C300,280,240,280,180,280C120,280,60,280,30,280L0,280Z"></path></svg>