<svg width="18" height="18" viewBox="0 0 18 18" fill="none" xmlns="http://www.w3.org/2000/svg">
<path d="M8.70402 0.689948C8.7298 0.633065 8.77144 0.584818 8.82393 0.55098C8.87643 0.517141 8.93756 0.499146 9.00002 0.499146C9.06247 0.499146 9.1236 0.517141 9.1761 0.55098C9.22859 0.584818 9.27023 0.633065 9.29601 0.689948L11.676 5.92595C11.6991 5.97702 11.735 6.02126 11.7802 6.05438C11.8254 6.0875 11.8784 6.10836 11.934 6.11495L17.67 6.79495C17.954 6.82895 18.06 7.18495 17.84 7.36795L13.554 10.9219C13.5086 10.9596 13.4742 11.0089 13.4547 11.0645C13.4351 11.1202 13.4311 11.1802 13.443 11.2379L14.672 17.2219C14.685 17.2842 14.6793 17.349 14.6558 17.4081C14.6323 17.4672 14.592 17.5182 14.5398 17.5546C14.4876 17.591 14.4259 17.6113 14.3623 17.613C14.2987 17.6146 14.236 17.5976 14.182 17.5639L9.17202 14.4559C9.12053 14.424 9.06113 14.407 9.00051 14.407C8.9399 14.407 8.8805 14.424 8.82902 14.4559L3.81902 17.5639C3.765 17.5976 3.70231 17.6146 3.63871 17.613C3.5751 17.6113 3.51338 17.591 3.46121 17.5546C3.40903 17.5182 3.3687 17.4672 3.3452 17.4081C3.3217 17.349 3.31607 17.2842 3.32902 17.2219L4.55702 11.2379C4.56894 11.1802 4.56491 11.1202 4.54536 11.0645C4.5258 11.0089 4.49146 10.9596 4.44602 10.9219L0.160016 7.36795C0.111017 7.32731 0.0750294 7.27318 0.0565211 7.21228C0.0380127 7.15137 0.0377982 7.08637 0.055904 7.02534C0.0740098 6.96431 0.109639 6.90995 0.158369 6.86899C0.207099 6.82803 0.266783 6.80229 0.330016 6.79495L6.06602 6.11495C6.12149 6.1082 6.17428 6.08726 6.2193 6.05415C6.26432 6.02104 6.30004 5.97689 6.32302 5.92595L8.70302 0.688948L8.70402 0.689948Z" fill="#F3AE18"/>
</svg>
